<?xml version="1.0" encoding="UTF-8"?>
<!DOCTYPE svg PUBLIC "-//W3C//DTD SVG 1.1//EN" "http://www.w3.org/Graphics/SVG/1.1/DTD/svg11.dtd">
<!-- Creator: CorelDRAW -->
<svg xmlns="http://www.w3.org/2000/svg" xml:space="preserve" width="210mm" height="297mm" version="1.1" style="shape-rendering:geometricPrecision; text-rendering:geometricPrecision; image-rendering:optimizeQuality; fill-rule:evenodd; clip-rule:evenodd"
viewBox="0 0 21000 29700"
 xmlns:xlink="http://www.w3.org/1999/xlink"
 xmlns:xodm="http://www.corel.com/coreldraw/odm/2003">
 <defs>
  <style type="text/css">
   <![CDATA[
    .str1 {stroke:#373435;stroke-width:20;stroke-miterlimit:22.9256}
    .str0 {stroke:#FEFEFE;stroke-width:100;stroke-linecap:round;stroke-miterlimit:22.9256}
    .fil4 {fill:none}
    .fil5 {fill:#FEFEFE}
    .fil7 {fill:#A9ABAE}
    .fil6 {fill:#848688}
    .fil3 {fill:#373435}
    .fil1 {fill:#3E4E69}
    .fil0 {fill:#2F394C}
    .fil11 {fill:#B1B2B6}
    .fil9 {fill:#CCCCCC}
    .fil10 {fill:#DDDFE3}
    .fil8 {fill:#FDFDFD}
    .fil2 {fill:url(#id0)}
   ]]>
  </style>
  <radialGradient id="id0" gradientUnits="userSpaceOnUse" gradientTransform="matrix(1.0045 0.41854 -0.574357 1.37848 4491 -7821)" cx="11534.25" cy="7909.24" r="3371.51" fx="11534.25" fy="7909.24">
   <stop offset="0" style="stop-opacity:1; stop-color:#3E4E69"/>
   <stop offset="1" style="stop-opacity:1; stop-color:#2B3039"/>
  </radialGradient>
 </defs>
 <g id="Camada_x0020_1">
  <metadata id="CorelCorpID_0Corel-Layer"/>
  <g id="_1405554904704">
   <polygon class="fil0" points="3774.07,19423.64 7026.41,19423.64 7026.41,21653.81 3774.07,21653.81 4629.75,20832.97 "/>
   <g>
    <polygon class="fil1" points="5828.09,19423.64 5828.09,21653.81 3774.07,21653.81 4629.75,20832.97 3774.07,19423.64 "/>
   </g>
   <polygon class="fil0" points="17289.67,19369.33 14037.33,19369.33 14037.33,21599.5 17289.67,21599.5 16433.99,20778.65 "/>
   <g>
    <polygon class="fil1" points="15235.65,19369.33 15235.65,21599.5 17289.67,21599.5 16433.99,20778.65 17289.67,19369.33 "/>
   </g>
   <polygon class="fil0" points="5477.73,20755.6 7026.41,20755.6 7026.41,21653.81 "/>
   <g>
    <polygon class="fil1" points="6602.59,20755.6 6602.59,21408 5477.73,20755.6 "/>
   </g>
   <polygon class="fil0" points="15586.02,20701.28 14037.33,20701.28 14037.33,21599.5 "/>
   <g>
    <polygon class="fil1" points="14461.15,20701.28 14461.15,21353.69 15586.02,20701.28 "/>
   </g>
   <path class="fil2" d="M4259.1 8574.02l6222.27 -3913.51 0 -17.75 14.12 8.86 8.88 -5.58 0 11.19 6222.27 3913.51c-3525.89,2413.51 -2422.16,6761.38 1204.66,7187.27 -1569.92,3183.23 -3801.99,6300.31 -7426.93,9278.02l0 22.27 -13.48 -11.13 -9.52 7.84 0 -15.69c-3624.94,-2977.72 -5857.01,-6094.8 -7426.93,-9278.02 3626.82,-425.89 4730.55,-4773.76 1204.66,-7187.28z"/>
   <g>
    <polygon class="fil3" points="7173.95,7121.63 13595.41,7121.63 13595.41,14221.32 7173.95,14221.32 "/>
   </g>
   <path class="fil4 str0" d="M7772.5 13714.74l1247.58 0c51.73,0 91.98,-60.87 91.98,-139.13l0 -843.41c0,-78.25 -40.25,-139.11 -91.98,-139.11l-172.5 0c-45.97,0 -80.48,-52.18 -80.48,-121.73l0 -913c0,-69.54 34.51,-121.73 80.48,-121.73l1011.87 0c45.99,0 91.98,-34.77 120.73,-78.25l339.19 -512.99c28.75,-43.48 51.75,-113.06 51.75,-182.61l0 -2260.71c0,-69.56 -23,-139.1 -51.75,-182.59l-339.19 -513.01c-28.75,-43.47 -74.74,-78.25 -120.73,-78.25l-2086.95 0c-51.73,0 -91.96,60.86 -91.96,139.13l0 843.42c0,78.25 40.23,139.1 91.96,139.1l172.48 0c45.99,0 80.5,52.17 80.5,121.73l0 3599.76c0,69.55 -34.51,121.73 -80.5,121.73l-172.48 0c-51.73,0 -91.96,60.86 -91.96,139.11l0 843.41c0,78.26 40.23,139.13 91.96,139.13zm3551.35 0l1253.3 0c45.99,0 91.98,-34.79 120.73,-78.25l339.19 -513.01c28.75,-43.48 51.75,-113.04 51.75,-182.59l0 -2191.15c0,-69.56 -23.04,-139.15 -51.75,-182.6l-339.19 -513.01c-28.71,-43.44 -74.88,-78.25 -120.73,-78.25l-896.86 0c-17.12,0 -46.05,-17.45 -57.5,-34.78l-45.99 -69.56c-11.45,-17.33 -23,-60.88 -23,-86.94l0 -843.43c0,-26.09 11.52,-69.57 23,-86.96l45.99 -69.55c11.49,-17.39 40.25,-34.79 57.5,-34.79l540.42 0c17.22,0 46.04,17.53 57.47,34.79l46.01 69.55c11.43,17.28 22.99,61.01 22.99,86.96l0 330.42c0,78.11 40.25,139.11 91.98,139.11l557.68 0c51.74,0 91.98,-60.86 91.98,-139.11l0 -869.52c0,-69.56 -23.04,-139.15 -51.75,-182.59l-339.19 -513.01c-28.71,-43.43 -74.88,-78.25 -120.73,-78.25l-1253.3 0c-45.85,0 -92.11,34.92 -120.75,78.25l-339.2 513.01c-28.64,43.33 -51.75,113.17 -51.75,182.59l0 1921.62c0,69.39 23.08,139.21 51.75,182.57l339.2 513.03c28.68,43.35 74.75,78.25 120.75,78.25l896.86 0c17.22,0 46.04,17.5 57.47,34.77l46.01 69.55c11.45,17.3 22.99,61.03 22.99,86.98l0 1112.94c0,25.96 -11.59,69.72 -22.99,86.96l-46.01 69.56c-11.39,17.23 -40.37,34.79 -57.47,34.79l-540.42 0c-17.12,0 -46.01,-17.39 -57.5,-34.79l-45.99 -69.56c-11.45,-17.35 -23,-60.86 -23,-86.96l0 -591.26c0,-78.24 -40.37,-139.13 -91.98,-139.13l-557.69 0c-51.59,0 -91.98,61.03 -91.98,139.13l0 1130.37c0,69.41 23.08,139.23 51.75,182.59l339.2 513.01c28.68,43.36 74.75,78.25 120.75,78.25zm-2556.75 -3521.49l0 -1321.65c0,-69.56 34.51,-121.73 80.48,-121.73l655.41 0c17.26,0 45.99,17.4 57.49,34.79l46.01 69.55c11.49,17.39 22.99,60.87 22.99,86.96l0 1182.52c0,26.08 -11.5,69.56 -22.99,86.96l-46.01 69.56c-11.5,17.38 -40.23,34.77 -57.49,34.77l-655.41 0c-45.97,0 -80.48,-52.18 -80.48,-121.73z"/>
   <path class="fil5" d="M7772.5 13714.74l1247.58 0c51.73,0 91.98,-60.87 91.98,-139.13l0 -843.41c0,-78.25 -40.25,-139.11 -91.98,-139.11l-172.5 0c-45.97,0 -80.48,-52.18 -80.48,-121.73l0 -913c0,-69.54 34.51,-121.73 80.48,-121.73l1011.87 0c45.99,0 91.98,-34.77 120.73,-78.25l339.19 -512.99c28.75,-43.48 51.75,-113.06 51.75,-182.61l0 -2260.71c0,-69.56 -23,-139.1 -51.75,-182.59l-339.19 -513.01c-28.75,-43.47 -74.74,-78.25 -120.73,-78.25l-2086.95 0c-51.73,0 -91.96,60.86 -91.96,139.13l0 843.42c0,78.25 40.23,139.1 91.96,139.1l172.48 0c45.99,0 80.5,52.17 80.5,121.73l0 3599.76c0,69.55 -34.51,121.73 -80.5,121.73l-172.48 0c-51.73,0 -91.96,60.86 -91.96,139.11l0 843.41c0,78.26 40.23,139.13 91.96,139.13zm3551.35 0l1253.3 0c45.99,0 91.98,-34.79 120.73,-78.25l339.19 -513.01c28.75,-43.48 51.75,-113.04 51.75,-182.59l0 -2191.15c0,-69.56 -23.04,-139.15 -51.75,-182.6l-339.19 -513.01c-28.71,-43.44 -74.88,-78.25 -120.73,-78.25l-896.86 0c-17.12,0 -46.05,-17.45 -57.5,-34.78l-45.99 -69.56c-11.45,-17.33 -23,-60.88 -23,-86.94l0 -843.43c0,-26.09 11.52,-69.57 23,-86.96l45.99 -69.55c11.49,-17.39 40.25,-34.79 57.5,-34.79l540.42 0c17.22,0 46.04,17.53 57.47,34.79l46.01 69.55c11.43,17.28 22.99,61.01 22.99,86.96l0 330.42c0,78.11 40.25,139.11 91.98,139.11l557.68 0c51.74,0 91.98,-60.86 91.98,-139.11l0 -869.52c0,-69.56 -23.04,-139.15 -51.75,-182.59l-339.19 -513.01c-28.71,-43.43 -74.88,-78.25 -120.73,-78.25l-1253.3 0c-45.85,0 -92.11,34.92 -120.75,78.25l-339.2 513.01c-28.64,43.33 -51.75,113.17 -51.75,182.59l0 1921.62c0,69.39 23.08,139.21 51.75,182.57l339.2 513.03c28.68,43.35 74.75,78.25 120.75,78.25l896.86 0c17.22,0 46.04,17.5 57.47,34.77l46.01 69.55c11.45,17.3 22.99,61.03 22.99,86.98l0 1112.94c0,25.96 -11.59,69.72 -22.99,86.96l-46.01 69.56c-11.39,17.23 -40.37,34.79 -57.47,34.79l-540.42 0c-17.12,0 -46.01,-17.39 -57.5,-34.79l-45.99 -69.56c-11.45,-17.35 -23,-60.86 -23,-86.96l0 -591.26c0,-78.24 -40.37,-139.13 -91.98,-139.13l-557.69 0c-51.59,0 -91.98,61.03 -91.98,139.13l0 1130.37c0,69.41 23.08,139.23 51.75,182.59l339.2 513.01c28.68,43.36 74.75,78.25 120.75,78.25zm-2556.75 -3521.49l0 -1321.65c0,-69.56 34.51,-121.73 80.48,-121.73l655.41 0c17.26,0 45.99,17.4 57.49,34.79l46.01 69.55c11.49,17.39 22.99,60.87 22.99,86.96l0 1182.52c0,26.08 -11.5,69.56 -22.99,86.96l-46.01 69.56c-11.5,17.38 -40.23,34.77 -57.49,34.77l-655.41 0c-45.97,0 -80.48,-52.18 -80.48,-121.73z"/>
   <g>
    <path class="fil6" d="M8025.48 9281.3l741.62 0 0 911.95c0,69.55 34.51,121.73 80.48,121.73l655.41 0c17.26,0 45.99,-17.39 57.49,-34.77l46.01 -69.56c11.49,-17.4 22.99,-60.88 22.99,-86.96l0 -842.39 741.64 0 0 1381.48c0,69.55 -23,139.13 -51.75,182.61l-339.19 512.99c-28.75,43.48 -74.74,78.25 -120.73,78.25l-1011.87 0c-45.97,0 -80.48,52.19 -80.48,121.73l0 913c0,69.55 34.51,121.73 80.48,121.73l172.5 0c51.73,0 91.98,60.86 91.98,139.11l0 843.41c0,78.26 -40.25,139.13 -91.98,139.13l-1247.58 0c-51.73,0 -91.96,-60.87 -91.96,-139.13l0 -843.41c0,-78.25 40.23,-139.11 91.96,-139.11l172.48 0c45.99,0 80.5,-52.18 80.5,-121.73l0 -3190.06zm2786.67 0l741.65 0 0 503.3c0,26.06 11.55,69.61 23,86.94l45.99 69.56c11.45,17.33 40.38,34.78 57.5,34.78l896.86 0c45.85,0 92.02,34.81 120.73,78.25l339.19 513.01c28.71,43.45 51.75,113.04 51.75,182.6l0 2191.15c0,69.55 -23,139.11 -51.75,182.59l-339.19 513.01c-28.75,43.46 -74.74,78.25 -120.73,78.25l-1253.3 0c-46,0 -92.07,-34.89 -120.75,-78.25l-339.2 -513.01c-28.67,-43.36 -51.75,-113.18 -51.75,-182.59l0 -1130.37c0,-78.1 40.39,-139.13 91.98,-139.13l557.69 0c51.61,0 91.98,60.89 91.98,139.13l0 591.26c0,26.1 11.55,69.61 23,86.96l45.99 69.56c11.49,17.4 40.38,34.79 57.5,34.79l540.42 0c17.1,0 46.08,-17.56 57.47,-34.79l46.01 -69.56c11.4,-17.24 22.99,-61 22.99,-86.96l0 -1112.94c0,-25.95 -11.54,-69.68 -22.99,-86.98l-46.01 -69.55c-11.43,-17.27 -40.25,-34.77 -57.47,-34.77l-896.86 0c-46,0 -92.07,-34.9 -120.75,-78.25l-339.2 -513.03c-28.67,-43.36 -51.75,-113.18 -51.75,-182.57l0 -1042.39zm1535.24 0l741.22 0c-3.18,73.51 -42.19,129.4 -91.77,129.4l-557.68 0c-49.57,0 -88.59,-56 -91.77,-129.4z"/>
   </g>
   <path class="fil5" d="M13932.18 11879.48c0,411.39 9.69,766.29 87.82,1161.08 128.49,649.49 379.69,1297.66 772.18,1829.67 120.22,162.94 249.5,327.87 392.58,469.76 151.29,150.05 303.57,271.9 476.15,401.04 154.87,115.87 365.31,224.92 550.91,311.44 126.96,59.16 514.55,198.15 679.04,198.15 -38.37,164.68 -827.55,1517.87 -960.54,1715.67 -63.21,94.03 -110.13,180.99 -172.35,273.68 -299.34,445.92 -592.01,886 -914.62,1315.53l-783.7 1000.45c-130.3,165.77 -281.44,316.58 -412.18,479.88 -67.69,84.58 -134.07,157.51 -209.95,236.08l-207.67 238.36c-38.23,41.34 -73.65,69.82 -111.88,111.14 -41.46,44.83 -57,72.93 -103.81,119.2 -41.08,40.6 -70.58,70.79 -111.65,111.37 -46.82,46.29 -62.34,74.37 -103.82,119.2 -266.65,288.31 -708.46,716.31 -1011,996.15l-759.12 683.05c-182.42,153.42 -361.26,331.82 -560.58,465.29 -48.66,-72.66 -271.68,-242.28 -350.54,-303.63l-239.79 -206.27c-22.85,-19.21 -31.38,-31.62 -52.59,-51.47 -30.54,-28.59 -36.13,-27.29 -66.37,-52.59l-696.88 -641.2c-75.02,-57.93 -156.52,-151.39 -225.58,-220.47 -249.87,-249.85 -544.04,-513.92 -766.35,-779.89l-216.44 -229.61c-35.1,-44.02 -70.4,-71.26 -110.29,-112.72l-260.05 -290.04c-214.87,-230.94 -555.11,-658.34 -758.39,-906.82 -69.57,-85.03 -130.98,-162.4 -198.76,-247.27 -400.66,-501.7 -760.26,-1019.17 -1118.98,-1557.22l-1153.93 -1953.43c-50.91,-97.82 -96.9,-200.09 -148.48,-297.57 38.57,-18.49 115.04,-25.95 169.64,-38.51 596.82,-137.27 1119.1,-470.35 1543.87,-894.43 760.56,-759.33 1230.32,-1954.39 1230.32,-3200.3 0,-842.62 -210.08,-1517.31 -490.64,-2081.5 -71.19,-143.16 -152.3,-273.05 -237.89,-401.42 -235.06,-352.52 -522.74,-652.21 -844.27,-924.99l-77.53 -86.01c56.28,-13.12 112.49,-60.22 162.68,-90.07l4437.74 -2728.53c58.02,-35.7 105.17,-61.03 157.27,-95.5 43.18,-28.57 292.09,-193.27 327.08,-193.27 56.35,0 4586.23,2798.96 5084.79,3062.77 -36.23,54.1 -254.76,217.34 -323.37,286.19 -53.11,53.27 -95.5,95.5 -148.69,148.69 -28.27,28.27 -46.69,45.81 -74.63,74.03 -36.26,36.67 -42.27,53.32 -74.28,89.26 -297.51,334 -529.97,732.73 -695.9,1147.72 -62.13,155.33 -108.33,302.67 -156.85,467.59 -81.59,277.42 -161.73,715.22 -161.73,1072.29zm-9024.75 -3256.04c106.56,89.69 204.43,162.13 314.05,245.47 194.26,147.61 367.47,317.34 537.42,493.91 35.19,36.56 40.41,53.27 74.07,89.47l344.31 473.42c39.84,60.24 82.29,137.41 112.97,199.26 35.38,71.35 75.42,142.15 108.26,218.82 319.52,746.2 367.39,1162.89 367.39,1996.6 0,466.97 -148.42,1074.5 -282.47,1412.45 -157.54,397.13 -339.76,759.3 -601.01,1093.93 -515.83,660.74 -1176.33,1053.57 -1994.19,1172.65 -54.32,7.9 -154.99,22.04 -199.96,23.04 105.01,198.45 199.85,432.33 315.1,621.58l165.81 309.94c306.13,608.05 692.46,1215.89 1071.31,1783.33l586.44 840.86c349.47,475.8 711.32,941.33 1092.1,1390.82l275.86 318.85c21.02,26.11 35.03,35.54 57.19,61.74 197.26,233.24 407.37,467.58 625.33,683.06 47.99,47.45 65.66,80.89 111.07,126.79l713.95 713.37c84.39,84.45 160.38,145.51 245.32,230.45 157.94,157.95 321.77,315.51 496.57,454.97l506.76 444.77c85.2,75.91 164.86,148.84 255.61,220.17 47.04,36.97 87.22,69.09 130.79,107.09 39.4,34.36 90.59,80.65 130.51,107.38 64.44,-17.21 389.73,-301.69 464.36,-368.21 26.71,-23.81 31.42,-32.64 62.29,-56.67l257.73 -218.03c24.76,-23.18 34.55,-37.01 60.87,-58.09l689.72 -618.63c82.29,-72.46 158.22,-159.41 237.71,-238.07 45.91,-45.41 79.36,-63.07 126.81,-111.08 170.33,-172.27 455.02,-425.3 589.69,-599.71l346.63 -367.05c258.75,-257.41 486.77,-545.37 728.98,-817.26 244.44,-274.41 474.06,-555.78 695.75,-850.5 38.24,-50.86 65.55,-81.88 104.22,-133.65l705.1 -960.1c398.01,-560.51 756.29,-1155.67 1101.04,-1753.58 112.01,-194.29 642.72,-1136.09 653.4,-1264.54 -261.67,-60.96 -420.73,-44.11 -719.48,-142.84 -803.43,-265.49 -1468.05,-899.46 -1842.74,-1651.2 -48.48,-97.29 -103.62,-195.2 -141.8,-289.35 -260.61,-642.65 -388.47,-1246.01 -388.47,-1960.65 0,-969.47 325.36,-1827.58 817.54,-2468.22 98.34,-128 207.5,-229.97 309.98,-359.09 35.07,-44.18 46.5,-42.34 87.24,-76.28 31.83,-26.54 52.73,-52.25 82.16,-81.4 36.18,-35.85 52.63,-42.69 89.09,-74.45 89.75,-78.22 445.84,-323.82 472.46,-360.15 -225.49,-151 -459.89,-281.28 -694.09,-420.99 -1278.68,-762.75 -2550.09,-1549.95 -3826.54,-2313.85 -347.6,-208.02 -722.05,-417.32 -1054.8,-640.14 -314.33,210.49 -1071.76,660.9 -1388.97,856.05 -62.22,38.28 -105.63,61.76 -166.11,101.51l-525.54 321.92c-820.09,487.62 -1622.25,1007.51 -2439.86,1500.12 -117.76,70.94 -232.59,137.58 -350.1,214.87 -70.1,46.07 -630.55,405.27 -704.83,425.12z"/>
   <g>
    <path class="fil7" d="M12974.72 6712.23l0 321.46c-1242.75,-757.59 -2462.8,-1502.75 -2491.88,-1502.75 -34.99,0 -283.9,164.7 -327.08,193.27 -52.1,34.47 -99.25,59.8 -157.27,95.5l-4437.74 2728.53c-50.19,29.85 -106.4,76.95 -162.68,90.07l77.53 86.01c321.53,272.78 609.21,572.47 844.27,924.99 85.59,128.37 166.7,258.26 237.89,401.42 280.56,564.19 490.64,1238.88 490.64,2081.5 0,1245.91 -469.76,2440.97 -1230.32,3200.3 -424.77,424.08 -947.05,757.16 -1543.87,894.43 -54.6,12.56 -131.07,20.02 -169.64,38.51 51.58,97.48 97.57,199.75 148.48,297.57l1153.93 1953.43c358.72,538.05 718.32,1055.52 1118.98,1557.22 67.78,84.87 129.19,162.24 198.76,247.27 203.28,248.48 543.52,675.88 758.39,906.82l260.05 290.04c39.89,41.46 75.19,68.7 110.29,112.72l216.44 229.61c222.31,265.97 516.48,530.04 766.35,779.89 69.06,69.08 150.56,162.54 225.58,220.47l696.88 641.2c30.24,25.3 35.83,24 66.37,52.59 21.21,19.85 29.74,32.26 52.59,51.47l239.79 206.27c78.86,61.35 301.88,230.97 350.54,303.63 199.32,-133.47 378.16,-311.87 560.58,-465.29l759.12 -683.05c302.54,-279.84 744.35,-707.84 1011,-996.15 41.48,-44.83 57,-72.91 103.82,-119.2 26.87,-26.53 48.76,-48.62 72.21,-72.1l0 390.68 -17.55 18.58c-134.67,174.41 -419.36,427.44 -589.69,599.71 -47.45,48.01 -80.9,65.67 -126.81,111.08 -79.49,78.66 -155.42,165.61 -237.71,238.07l-689.72 618.63c-26.32,21.08 -36.11,34.91 -60.87,58.09l-257.73 218.03c-30.87,24.03 -35.58,32.86 -62.29,56.67 -74.63,66.52 -399.92,351 -464.36,368.21 -39.92,-26.73 -91.11,-73.02 -130.51,-107.38 -43.57,-38 -83.75,-70.12 -130.79,-107.09 -90.75,-71.33 -170.41,-144.26 -255.61,-220.17l-506.76 -444.77c-174.8,-139.46 -338.63,-297.02 -496.57,-454.97 -84.94,-84.94 -160.93,-146 -245.32,-230.45l-713.95 -713.37c-45.41,-45.9 -63.08,-79.34 -111.07,-126.79 -217.96,-215.48 -428.07,-449.82 -625.33,-683.06 -22.16,-26.2 -36.17,-35.63 -57.19,-61.74l-275.86 -318.85c-380.78,-449.49 -742.63,-915.02 -1092.1,-1390.82l-586.44 -840.86c-378.85,-567.44 -765.18,-1175.28 -1071.31,-1783.33l-165.81 -309.94c-115.25,-189.25 -210.09,-423.13 -315.1,-621.58 44.97,-1 145.64,-15.14 199.96,-23.04 817.86,-119.08 1478.36,-511.91 1994.19,-1172.65 261.25,-334.63 443.47,-696.8 601.01,-1093.93 134.05,-337.95 282.47,-945.48 282.47,-1412.45 0,-833.71 -47.87,-1250.4 -367.39,-1996.6 -32.84,-76.67 -72.88,-147.47 -108.26,-218.82 -30.68,-61.85 -73.13,-139.02 -112.97,-199.26l-344.31 -473.42c-33.66,-36.2 -38.88,-52.91 -74.07,-89.47 -169.95,-176.57 -343.16,-346.3 -537.42,-493.91 -109.62,-83.34 -207.49,-155.78 -314.05,-245.47 74.28,-19.85 634.73,-379.05 704.83,-425.12 117.51,-77.29 232.34,-143.93 350.1,-214.87 817.61,-492.61 1619.77,-1012.5 2439.86,-1500.12l525.54 -321.92c60.48,-39.75 103.89,-63.23 166.11,-101.51 317.21,-195.15 1074.64,-645.56 1388.97,-856.05 332.75,222.82 707.2,432.12 1054.8,640.14 479.53,286.98 958.33,577.23 1437.08,868.24z"/>
   </g>
   <g>
    <polygon class="fil3" points="6630.88,12316.19 14291.9,12316.19 14291.9,19966.89 6630.88,19966.89 "/>
   </g>
   <path class="fil0" d="M13010.28 15191.37c-44.12,-123.64 -103.51,-252.04 -164.39,-366.09 -85.22,-159.58 -108.29,-160.96 -230.53,-212.54 -180.52,-76.16 -357.72,-145.19 -570.78,-195.3 -80.78,-18.99 -214.63,-53.91 -304.41,-60.92 -70.88,-5.52 -80.96,48.36 -108.7,95.47l-232.94 381.43c-37.12,63.66 -116.85,211.54 -162.31,255.45 120.38,276.53 203.81,345.61 348.34,750.82 161.02,451.4 47.61,408.54 263.52,463.91l721.1 196.71c78.56,-45.87 175.28,-203.77 220.5,-274.93 110.07,-173.09 228.5,-410.28 288.82,-606.94 42.81,-139.72 -9.89,-263.47 -68.22,-427.07zm-4374.33 986.97l355.4 -1.28 260.33 603.41 5.61 3.53 164.57 327.67c-51.19,50.53 -249.27,352.74 -283.2,425.6l410.44 -413.18 -92.59 -192.95c-12.43,-33.07 -11.35,-60.6 -38.27,-60.99 -9.39,-43.62 -299.68,-802.81 -321.49,-841.51 -64.8,-14.3 -505.76,-13.33 -563.6,5.83l-63.57 -21.18c-91.4,33.35 -186.23,-3.44 -286.52,29.85 -17.42,161.42 -118.85,488.53 -103.02,654.74l172.51 -483.95c12.36,-35.05 10.82,-39.37 29.13,-74.66l344.34 27.02 9.93 12.05zm-937.96 1183.59c17.46,27.95 22.74,43.72 37.44,68.83 25.78,43.98 3.18,22.6 34.58,46.17 41.55,198.24 404.29,638.51 536.52,770.67 147,146.9 521.61,461.68 651.93,494.08 32.93,35.21 147.35,94.95 195.24,99.31l191.11 -66.1c-19.43,-47.43 -117.22,-156.97 -157.64,-212.46 -54.95,-75.35 -97.97,-145.56 -143.63,-227.45 -120.66,-216.36 -180.24,-472.48 -267.51,-524.12 -143.88,-85.1 -248.2,-157.32 -388.46,-265.64 -158.46,-122.38 -308.78,-292.82 -360.86,-332.13l-328.72 148.84zm3295.33 1739.99c56.72,-10.89 145.07,-26.12 219.51,-48 286.94,-59.72 627.68,-222.7 866.48,-374.79 184.35,-117.39 496.19,-360.58 605.31,-513.76l18.02 -21.21 79.33 -79.27c-29.39,-45.38 -290.04,-243.63 -337.89,-261.7 -271.63,165.91 -467.87,259.8 -771.64,356.65 -114.5,36.52 -185.53,28.41 -246.41,118.78 -109.33,162.31 -303.15,372.87 -466.6,510.99 -52.01,43.97 -157.95,112.43 -196.41,156.46 74.23,71.7 162.34,101.76 230.3,155.85zm1895.46 -1176.06c28.09,-41.83 55.33,-67.89 66.34,-113.63 85.06,-61.92 243.74,-418.59 286.43,-514.96 57.45,-129.86 162.06,-410.56 170.07,-570.91 33.01,-41.98 40.21,-200.36 48.2,-275.47 8.83,-83.32 32.82,-216.53 4.78,-293.27 28.9,-58.51 9.6,-168.97 2.88,-243.65l-117.32 -100.87c-37.48,-30.05 -87.56,-56.79 -121.22,-76.97 -27.64,32.51 -59.67,124.98 -76.51,169.06 -65.49,171.53 -274.58,518.45 -398.9,657.53 -84.77,94.86 -71.95,44.02 -69.02,184.61 2.92,139.43 -25.78,294.81 -17.94,413.34l-14.98 42.49c8.3,133.71 -69.51,341.55 -90.16,461.14 87.35,90.89 236.68,175.17 327.35,261.56zm-170.87 -3794.27c-28.55,-17.84 -32.36,-28.7 -54.52,-52.42 -12.21,-13.1 -20.76,-22.46 -32.77,-32.59 -14.93,-12.61 -19.3,-14.42 -29.1,-20.02 -43.6,-74 -273.8,-254.52 -341.51,-304.62 -292.01,-215.98 -845.96,-499.24 -1213.95,-534.31l-90.63 -24.06c-48.52,37.04 -13.14,-5.13 -35.72,47.31l-66.04 328.38c49.09,41.25 69.27,33.34 122.9,65.39l321.88 214.89c547.99,434.37 166.93,305.71 664.86,407.15 248.06,50.56 513.78,139.73 732.02,234.07 40.97,-72.91 78.65,-220.21 22.58,-329.17zm-1955.98 -983.81l-136.44 -10.09c-88.67,-41.85 -623.35,22.44 -768.25,51.55 -241.39,48.51 -641.5,176.89 -841.85,311.09l-251.43 139.78c-16.79,84.67 -118.43,237.24 -58.97,300.84 187.48,-34.17 320.04,-56.02 504.3,-58.77 218.45,-3.3 323.68,30.32 452.69,35.66 51.74,2.13 389.35,-184.94 480.4,-223.66 192.34,-81.82 350.75,-120.01 536.84,-175.05l82.71 -371.35zm-3155.27 1997.52c0.56,58.03 -42.13,146.96 -54.21,225.93 -64.09,161.47 -104.29,525.7 -105.89,746.05 -1.21,167.86 33.35,703.91 127.81,857.48 -12.07,68.03 45.9,133.72 55.14,227.84l341.65 -151.54c-26.23,-266.99 29.66,-710.09 84.89,-942.01 30.78,-129.32 -7.39,-144.42 -53.05,-280.11 -90.24,-268.22 -159.59,-771.38 -172.85,-799.82 -109.21,28.8 -135.25,76.88 -223.49,116.18zm381.11 -244.95l21.74 48.66c-31.82,178.27 125.98,740.43 199.37,946.22 45.76,41.2 166.56,18.6 230.32,12.52l7.25 6.62 636.41 -8.74c42.58,-60.82 78.62,-132.29 123.55,-200.89 46.75,-71.33 89.63,-128.63 138.24,-197.93 497.66,-709.47 516.05,-404.85 414.81,-843.92 -42.88,-186.03 -79.48,-401.36 -129.31,-584.34 -75.37,1.08 -164.35,-16.2 -252.14,-21.33 -231.3,-13.65 -604.51,10.76 -810.8,103.59 -118.3,53.21 -385.02,414.42 -463.22,540.63 -22.55,36.38 -43.02,66.55 -60.5,97.3 -22.44,39.51 -29.09,61.83 -55.72,101.61zm1629.85 2106.4c57.15,92.4 91.48,43.31 151.66,85.98 62.11,2.33 609.75,93.87 817.08,109.35 301.88,22.46 255.93,36.64 369.61,-84.49 170.76,-182.01 347.35,-417.13 488.67,-614.91 126.19,-176.62 125.7,-146.54 47.75,-396.65 -57.97,-186 -291.57,-808.66 -406.8,-921.54 -67.91,-66.52 -818.2,-132.67 -1006.76,-144.13 -95.62,-5.82 -114.51,-24.33 -183.33,52.34 -99.37,110.67 -698.45,811.56 -667.89,951.44 56.03,256.28 273.17,722.77 390.01,962.61zm718.24 329.29c-57.86,13.68 -323.44,-35.5 -396.34,-47.53 -60.54,-9.98 -126.18,-22.13 -189.03,-35.53 -67.82,-14.45 -117.48,-49.24 -180.91,7.06 -194.06,172.3 -374.12,393 -564.32,563.02 101.39,284.24 233.52,558.18 419.62,768.04 130.39,147.05 111.32,149.27 297.53,192.45 110.45,25.62 239.4,49.78 359.35,61.9 126.98,12.87 244.18,18.3 377.64,24.97 251.06,12.57 773.2,-556.56 844.18,-726.37 -86.05,-152.2 -372.24,-564.9 -408.77,-698.32 -98.53,-70.46 68.05,-56.2 -261.86,-78.39 -76.55,-5.17 -230.6,4.83 -297.09,-31.3zm2215.32 -102.76l-1.83 0.65c-7.01,-173.27 56.9,-431.63 16.51,-611.21 -92.74,-35.52 -845.2,-246 -907.52,-238.99 -43.59,50.9 -95.48,147.13 -140.84,210.7l-449.56 582.22c107.38,-75.18 236.75,-221.79 334.19,-316.09 109.61,-106.05 210.32,-230.64 310.15,-325.6 25.13,-10.07 647.33,169.96 732.69,191.16 16.14,88.85 21.46,183.96 32.51,278.16 5.49,46.65 11.59,88.99 16.2,133.4 15.98,153.74 21.73,116.16 57.5,95.6zm565.55 -2343.75c-62.69,-175.78 -160.12,-339.44 -254.65,-485.11 -7.93,18.85 -34.08,104.49 -35.45,122.1 -3.21,42.64 25.67,62.95 55.63,101.68 206.25,266.6 260.51,526.9 366.49,808.72 1.95,-174.51 -70.25,-374.23 -132.02,-547.39zm-1621.28 -422.06c97.67,-165.39 137.72,-167.9 81.02,-241.93 -119.96,-156.47 -686.58,-623.84 -877.3,-592.04 -215.33,35.92 -784.63,246.94 -902.69,373.23 282.28,-82.39 491.64,-158.36 782.7,-220.84 128.72,-27.6 126.08,-35.85 214.06,12.96 178.57,99.08 522.23,313.14 642.47,495.14 -37.64,91.57 -216.63,549.58 -223.25,627.85l282.99 -454.37zm-3409.72 45.25c61.09,-58.27 162.06,-192.01 278.45,-305.97 223.97,-219.25 205.97,-136.33 236.24,-313.46 -127.36,98.71 -424.87,433.24 -501.44,588.4l-13.25 31.03zm5456.71 364.66l103.15 289.16c147.11,412.36 170.25,994.61 129.39,1319.86 -28.17,224.48 -50.82,356.28 -114.28,575.05 -68.95,237.61 -100.36,299.74 -209.5,529.92 -580.39,1224.1 -1916.14,1987.59 -3268.9,1863.39 -748.15,-68.68 -1556.59,-414.01 -2066.7,-949.77 -146.44,-153.85 -271.84,-295.77 -401.29,-480.7 -553.21,-790.17 -733.54,-1911.13 -455.47,-2796.92 181.05,-576.8 430.9,-1026.89 888.14,-1478.07 965.4,-952.57 2495.73,-1202.13 3700.92,-630.67 346.4,164.25 546.22,290.91 838.54,547.89 112.43,98.81 217.89,202.52 316.07,322.74 74.64,91.38 124.45,155.94 197.84,258.38 116.85,163.19 262.42,406.33 342.09,629.74z"/>
   <path class="fil8" d="M11334.52 16006.49c94.41,264.64 113.25,281.46 29.17,400.64 -65.27,92.49 -126.65,180.1 -205.58,280.39 -74.63,94.83 -141.22,179.38 -221.93,271.8 -131.4,150.56 -92.86,147.02 -304.74,125.47 -259.91,-26.43 -472.73,-51.17 -721.49,-95.35 -206.79,-36.76 -172.26,0 -272.68,-220.56 -131.43,-288.69 -177.71,-421.98 -280.07,-708.95 -29.83,-83.62 292.4,-481.79 341.55,-545.32 320.66,-414.51 275.4,-360.48 501.56,-345.61 111.53,7.33 759.6,61.24 818.92,132.36 87.73,105.15 261.19,553.45 315.29,705.13z"/>
   <path class="fil8" d="M12892.99 15217.72c108.61,304.44 112.68,283.31 -4.46,562.14 -30.1,71.61 -268.29,591.7 -379.87,579.98l-696.62 -197.73 -162.75 -485.23c-74.73,-209.49 -181.29,-378.35 -267.07,-572.17 27.34,-65.43 55.66,-99.53 88.78,-157.11 29.87,-51.89 60.53,-100.65 92.05,-150.75 55.74,-88.65 130.55,-241.11 194.63,-310.31 146.48,-2.04 530.97,121.88 651.82,173.72 246.04,105.52 297.72,36.67 483.49,557.46z"/>
   <path class="fil8" d="M8365.74 15795.35l5.62 -10.17c-167.38,-294.51 -188.7,-354.67 -233.37,-690 -22.55,-169.18 -32.35,-180.94 48.08,-297.7 164.43,-238.75 153.75,-236.19 360.12,-469.48 150.2,-169.81 803.43,-180.22 986.13,-130.79l154.16 679.48 -678.13 911.05 -642.61 7.61z"/>
   <path class="fil9" d="M10932.58 18421.8c-10.69,35.65 14.86,-4.9 -18.49,27.75 -12.26,11.99 -12.26,10.17 -27.29,21l-165.63 137.46c-69.91,55.88 -159.69,140.7 -250.36,142.72 -147.71,3.26 -425.15,-25.68 -559.12,-52.79 -264.92,-53.61 -272.13,-23.48 -457.92,-263.91 -125.37,-162.26 -234.52,-369.67 -307.43,-574.05 58.14,-61.18 108.5,-112 165.01,-180.28 55.95,-16.82 210.52,-141.66 266.82,-185.84 74.79,-58.67 64.11,-61.08 144.04,-37.25 242.06,72.18 466.72,105.82 718.38,151.27 341.41,61.65 174.89,-55.21 476.73,319.77 91.28,113.37 178.89,179.15 146.72,246.73 -12.93,27.09 -23.95,37.21 -39.05,62.99 -37.44,63.85 -90.74,136.67 -92.41,184.43z"/>
   <path class="fil10" d="M11334.52 16006.49c-54.1,-151.68 -227.56,-599.98 -315.29,-705.13 -59.32,-71.12 -707.39,-125.03 -818.92,-132.36 -226.16,-14.87 -180.9,-68.9 -501.56,345.61 -49.15,63.53 -371.38,461.7 -341.55,545.32 102.36,286.97 148.64,420.26 280.07,708.95 100.42,220.56 65.89,183.8 272.68,220.56 248.76,44.18 461.58,68.92 721.49,95.35 211.88,21.55 173.34,25.09 304.74,-125.47 80.71,-92.42 147.3,-176.97 221.93,-271.8 78.93,-100.29 140.31,-187.9 205.58,-280.39 84.08,-119.18 65.24,-136 -29.17,-400.64zm-1565.24 1086.25c-60.18,-42.7 -94.5,6.4 -151.66,-86.01 -116.84,-239.82 -333.96,-706.31 -389.99,-962.59 -30.59,-139.88 568.5,-840.77 667.87,-951.44 68.82,-76.63 87.7,-58.16 183.35,-52.34 188.56,11.46 938.83,77.61 1006.74,144.15 115.23,112.86 348.83,735.52 406.8,921.5 77.95,250.15 78.46,220.05 -47.75,396.67 -141.32,197.78 -317.91,432.88 -488.67,614.88 -113.7,121.16 -67.73,106.99 -369.61,84.52 -207.32,-15.46 -754.99,-107.02 -817.08,-109.34z"/>
   <path class="fil8" d="M12601.52 14026.56c13.58,97.18 14.89,181.12 22.94,267.74l-116.39 -35.01c-38.23,-12.4 -70,-25.48 -107.88,-37.48 -76.93,-24.39 -141.92,-46.94 -220.22,-66.45 -75.48,-18.79 -152.22,-36.29 -227.37,-51.2 -368.4,-73.11 -136.12,-28.94 -576.86,-375.55 -180.31,-141.8 -236.4,-153.99 -385.23,-253.69 -4.16,-90.39 45.77,-197.56 55.57,-287.29 367.97,35.07 921.92,318.33 1213.91,534.31 67.75,50.1 297.91,230.6 341.53,304.62z"/>
   <path class="fil8" d="M10625.49 13137.7c14.27,45.96 -41.27,254.1 -55.09,283.27 -163.49,54.74 -312.79,95.79 -474.5,163.49 -85.57,35.82 -385.94,198.9 -430.84,207.58 -31.58,6.09 -320.24,-27.85 -399.03,-29.31 -140.06,-2.56 -289.38,27.73 -422.38,24.87 31.26,-100.03 130.14,-216.45 171.72,-287.27 200.37,-134.22 600.46,-262.58 841.85,-311.09 144.92,-29.09 679.6,-93.4 768.27,-51.54z"/>
   <path class="fil10" d="M12892.99 15217.72c-185.77,-520.79 -237.45,-451.94 -483.49,-557.46 -120.85,-51.84 -505.34,-175.76 -651.82,-173.72 -64.08,69.2 -138.89,221.66 -194.63,310.31 -31.52,50.1 -62.18,98.86 -92.05,150.75 -33.12,57.58 -61.44,91.68 -88.78,157.11 85.78,193.82 192.34,362.68 267.07,572.17l162.75 485.23 696.62 197.73c111.58,11.72 349.77,-508.37 379.87,-579.98 117.14,-278.83 113.07,-257.7 4.46,-562.14zm117.29 -26.33c58.35,163.6 111.03,287.34 68.2,427.07 -60.3,196.66 -178.69,433.83 -288.8,606.94 -45.23,71.14 -141.94,229.04 -220.5,274.93l-721.1 -196.73c-215.91,-55.39 -102.49,-12.51 -263.52,-463.93 -144.55,-405.21 -227.98,-474.25 -348.34,-750.8 45.46,-43.91 125.19,-191.79 162.31,-255.46l232.96 -381.43c27.72,-47.08 37.8,-100.98 108.68,-95.46 89.78,6.99 223.63,41.93 304.41,60.92 213.06,50.11 390.26,119.14 570.78,195.3 122.24,51.56 145.31,52.96 230.52,212.54 60.91,114.05 120.28,242.45 164.4,366.11z"/>
   <path class="fil11" d="M10932.58 18421.8c67.47,-58.68 194.73,-207.39 232.61,-274.94 -71.97,-164.12 -239.18,-393.14 -336.25,-561.65 -40.48,-70.24 -34.38,-84.96 -106.87,-89.7 -350.56,-22.95 -628.72,-42.51 -982.03,-125.28 -69.7,-16.33 -72.79,-35.36 -127,12.59 -74.17,65.63 -247.18,263.62 -301.69,296.88 -56.51,68.28 -106.87,119.1 -165.01,180.28 72.91,204.38 182.06,411.79 307.43,574.05 185.79,240.43 193,210.3 457.92,263.91 133.97,27.11 411.41,56.05 559.12,52.79 90.67,-2.02 180.45,-86.84 250.36,-142.72l165.63 -137.46c15.03,-10.83 15.03,-9.01 27.29,-21 33.35,-32.65 7.8,7.9 18.49,-27.75zm-596.72 -1085.76c66.49,36.09 220.53,26.13 297.09,31.3 329.92,22.21 163.33,7.93 261.88,78.39 36.51,133.4 322.69,546.12 408.75,698.32 -70.96,169.83 -593.12,738.94 -844.18,726.37 -133.48,-6.67 -250.67,-12.1 -377.64,-24.94 -119.95,-12.15 -248.88,-36.31 -359.35,-61.93 -186.23,-43.18 -167.12,-45.41 -297.55,-192.46 -186.08,-209.87 -318.19,-483.81 -419.58,-768.03 190.19,-170.02 370.22,-390.72 564.3,-563 63.43,-56.3 113.09,-21.53 180.91,-7.08 62.86,13.4 128.49,25.54 189.03,35.53 72.9,12.03 338.5,61.21 396.34,47.53z"/>
   <path class="fil9" d="M12684.64 18165.37c-109.14,153.18 -420.98,396.39 -605.33,513.76 -238.8,152.09 -579.54,315.05 -866.48,374.79l-237.52 -109.78c6.92,-12.51 -5.45,1.81 17.93,-24.55 43.67,-49.26 201.33,-163 272.74,-261.79 67.15,0.91 238.42,-167.07 291.14,-213.92 62.23,-55.3 318.68,-119.26 421.54,-161.42 136.28,-55.88 279.56,-120.87 401.36,-192.44 89.11,-52.39 84.32,-38.18 155.35,-3.06 84.47,41.8 108.35,34.51 149.27,78.41z"/>
   <path class="fil10" d="M8446.45 15914.39l-7.23 -6.64 -73.48 -112.4 642.61 -7.61 678.13 -911.05 -154.16 -679.48c-182.7,-49.43 -835.93,-39.02 -986.13,130.79 -206.37,233.29 -195.69,230.73 -360.12,469.48 -80.43,116.76 -70.63,128.52 -48.08,297.7 44.67,335.33 65.99,395.49 233.37,690l-65.64 1.98c-56.98,-130.07 -91.29,-271.78 -150.63,-414.58 -55.93,-134.58 -107.8,-282.72 -145.58,-423.59l-21.74 -48.66c26.63,-39.74 33.26,-62.08 55.72,-101.61 17.48,-30.73 37.95,-60.9 60.5,-97.28 78.18,-126.21 344.92,-487.41 463.21,-540.63 206.3,-92.83 579.49,-117.22 810.81,-103.63 87.79,5.18 176.77,22.46 252.14,21.37 49.83,182.98 86.45,398.31 129.33,584.34 101.22,439.05 82.83,134.45 -414.85,843.94 -48.59,69.28 -91.49,126.58 -138.23,197.91 -44.92,68.6 -80.94,140.07 -123.54,200.89l-636.41 8.76z"/>
   <path class="fil9" d="M8065.36 17406.88c-6.73,28.63 -23.27,-12.75 10.37,46.31 2.74,4.76 23.41,29.55 28.66,35.79 152.92,181.27 305.69,337.3 495.07,477.85 68.97,51.19 159.18,281.58 229.42,384.77 89.74,131.8 177.68,209.84 263.76,322 13.59,-25.81 31.71,22.41 1.12,-41.21 3.6,2.03 7.98,4.81 10.38,6.76 2.41,1.98 7.17,4.69 10.1,7.32l55.33 72.53 -211.11 22.67c-130.33,-32.35 -504.93,-347.17 -651.95,-494.08 -132.21,-132.11 -494.97,-572.4 -536.5,-770.66 30.5,-44.25 110.22,-63.69 163.99,-90.94 75.88,-38.44 88.39,-71.21 131.36,20.89z"/>
   <path class="fil8" d="M13464.58 16157.62c28.06,76.74 4.07,209.95 -4.76,293.26 -8.01,75.12 -15.19,233.51 -48.2,275.48 -139.22,135.87 -315.46,220.46 -469.41,314.23 -93,56.65 -38.51,198.4 -130.31,476.57 -23.99,72.7 -48.31,79.36 13.41,149.56 39.83,45.33 91.56,88.95 109.42,145.21 -28.43,-29.82 -112.05,-89.86 -154.32,-121.85 -85.64,-64.8 -95.91,-45.76 -68.42,-151.27 24.31,-93.28 70.76,-306.55 64.56,-414.07 22.91,-101.68 22.04,-241.44 22.26,-356.99 0.2,-103.83 -3.74,-75.07 60.66,-155l432.77 -707.53c70.1,94.81 110.63,130.34 172.34,252.4z"/>
   <path class="fil9" d="M7730.27 17033.92l-22.39 21.65c-57.13,39.79 25.08,-7.32 -25.15,16 -47.78,22.19 -8.97,10.2 -62.14,11.02l-46.21 -107.83c-94.49,-153.55 -129.01,-689.62 -127.82,-857.5 1.58,-220.33 41.81,-584.56 105.89,-746.03 23.13,-17.63 12.93,-9.87 27.94,-24.78 5.88,-5.81 15.42,-3.99 15.45,-17.45 0.02,-4.99 4.64,-6.08 7.15,-8.96 38,4.71 41.16,-6.59 84.96,-29.98 47.11,368.77 37.98,357.71 124.64,715.77 17.65,72.94 1.55,144.89 -7.8,212.97 -23.37,170.44 -27.27,464.79 -13.53,645.54 8.48,111.79 -13.58,107.1 -113.99,169.89 18.49,7.2 -17.24,19.07 53,-0.31z"/>
   <path class="fil10" d="M10625.49 13137.7l136.42 10.08 -82.69 371.34c-186.07,55.05 -344.5,93.24 -536.84,175.06 -91.05,38.73 -428.66,225.79 -480.4,223.66 -129,-5.34 -234.24,-38.96 -452.69,-35.68 -184.26,2.77 -316.82,24.62 -504.3,58.79 -59.46,-63.6 42.18,-216.15 58.99,-300.84l251.39 -139.78c-41.58,70.82 -140.46,187.24 -171.72,287.27 133,2.86 282.32,-27.43 422.38,-24.87 78.79,1.46 367.45,35.4 399.03,29.31 44.9,-8.68 345.27,-171.76 430.84,-207.58 161.71,-67.7 311.01,-108.75 474.5,-163.49 13.82,-29.17 69.36,-237.31 55.09,-283.27z"/>
   <path class="fil10" d="M11046.08 13187.63c-9.8,89.73 -59.73,196.9 -55.57,287.29 148.83,99.7 204.92,111.89 385.23,253.69 440.74,346.61 208.46,302.44 576.86,375.55 75.15,14.91 151.89,32.41 227.37,51.2 78.3,19.51 143.29,42.06 220.22,66.45 37.88,12 69.65,25.08 107.88,37.48l116.39 35.01c-8.05,-86.62 -9.36,-170.56 -22.94,-267.74 9.82,5.58 14.19,7.41 29.08,20 12.03,10.17 20.58,19.49 32.79,32.57 22.14,23.76 25.97,34.62 54.52,52.46 56.07,108.96 18.41,256.26 -22.58,329.18 -218.24,-94.31 -483.96,-183.54 -732.01,-234.08 -497.94,-101.44 -116.88,27.21 -664.88,-407.15l-321.89 -214.87c-53.61,-32.07 -73.79,-24.16 -122.87,-65.41l66.03 -328.38c22.57,-52.4 -12.8,-10.29 35.72,-47.31l90.65 24.06z"/>
   <path class="fil11" d="M12781.96 18064.89l-79.32 79.28c-41.92,-46.41 -201.42,-164.47 -256.21,-202.52 -238.05,120.9 -416.31,227.37 -687.12,312.87 -414.97,131 -122.8,50.08 -493.33,403.28 -71.41,98.79 -229.07,212.53 -272.74,261.79 -23.38,26.36 -11.01,12.04 -17.93,24.55l237.52 109.78c-74.44,21.88 -162.79,37.11 -219.51,47.96 -67.96,-54.05 -156.07,-84.11 -230.3,-155.83 38.42,-44.01 144.4,-112.47 196.41,-156.44 163.45,-138.13 357.27,-348.67 466.6,-510.98 60.88,-90.4 131.91,-82.28 246.41,-118.78 303.76,-96.86 500.01,-190.75 771.64,-356.68 47.83,18.09 308.5,216.36 337.88,261.72z"/>
   <path class="fil9" d="M12955.12 17812.23l-20.39 -0.3c-17.86,-56.26 -69.59,-99.88 -109.42,-145.21 -61.72,-70.2 -37.4,-76.86 -13.41,-149.56 91.8,-278.17 37.31,-419.92 130.31,-476.57 153.95,-93.77 330.19,-178.36 469.41,-314.23 -8.03,160.35 -112.6,441.05 -170.07,570.89 -42.68,96.37 -201.37,453.04 -286.43,514.98z"/>
   <path class="fil11" d="M7629.51 17202.6c-9.22,-94.12 -67.21,-159.81 -55.13,-227.84l46.21 107.83c53.17,-0.82 14.36,11.17 62.14,-11.02 50.23,-23.32 -31.98,23.79 25.15,-16l22.39 -21.65 115.42 -53.32c19.06,-78.32 13.42,-309.73 21.22,-412.82 10.01,-132.53 32.59,-286.94 57.79,-407.14 46.18,-220.4 7.16,-130.11 -85.79,-475.22 -44.63,-165.81 -68.01,-313.66 -97.33,-475.66l-138.59 110.28c-2.51,2.88 -7.13,3.97 -7.15,8.96 -0.03,13.46 -9.57,11.64 -15.45,17.45 -15.01,14.91 -4.81,7.15 -27.94,24.78 12.07,-79.01 54.77,-167.93 54.21,-225.93 88.26,-39.3 114.28,-87.37 223.49,-116.2 13.28,28.46 82.61,531.61 172.85,799.84 45.66,135.69 83.83,150.79 53.05,280.11 -55.23,231.92 -111.12,675.02 -84.85,942.01l-341.69 151.54z"/>
   <path class="fil11" d="M9153.7 18840.99c-47.87,-4.38 -162.31,-64.08 -195.24,-99.32l211.11 -22.67 -55.33 -72.53c-2.93,-2.63 -7.69,-5.34 -10.1,-7.32 -2.4,-1.95 -6.78,-4.73 -10.38,-6.76 -122.71,-180.79 -234.83,-374.92 -313.66,-584.32 -51.45,-136.7 -22.57,-113.9 -124.05,-176.75 -157.64,-97.64 -457.69,-300.77 -590.69,-464.44 -42.97,-92.1 -55.48,-59.33 -131.36,-20.89 -53.77,27.25 -133.49,46.69 -163.99,90.94 -31.42,-23.55 -8.8,-2.19 -34.58,-46.17 -14.68,-25.11 -19.98,-40.88 -37.44,-68.83l328.7 -148.83c52.08,39.3 202.38,209.74 360.9,332.12 140.25,108.32 244.58,180.52 388.44,265.64 87.27,51.64 146.84,307.76 267.51,524.14 45.64,81.87 88.68,152.08 143.63,227.43 40.44,55.49 138.2,165.03 157.65,212.48l-191.12 66.08z"/>
   <path class="fil8" d="M10932.58 18421.8c1.67,-47.76 54.97,-120.58 92.41,-184.43 15.1,-25.78 26.12,-35.9 39.05,-62.99 32.17,-67.58 -55.44,-133.36 -146.72,-246.73 -301.84,-374.98 -135.32,-258.12 -476.73,-319.77 -251.66,-45.45 -476.32,-79.09 -718.38,-151.27 -79.93,-23.83 -69.25,-21.42 -144.04,37.25 -56.3,44.18 -210.87,169.02 -266.82,185.84 54.51,-33.26 227.52,-231.25 301.69,-296.88 54.21,-47.95 57.3,-28.92 127,-12.59 353.31,82.77 631.47,102.33 982.03,125.28 72.49,4.74 66.39,19.46 106.87,89.7 97.07,168.51 264.28,397.53 336.25,561.65 -37.88,67.55 -165.14,216.26 -232.61,274.94z"/>
   <path class="fil10" d="M13467.46 15913.97c6.74,74.68 26.04,185.14 -2.88,243.65 -61.71,-122.06 -102.24,-157.59 -172.34,-252.4l-432.77 707.53c-64.4,79.93 -60.46,51.17 -60.66,155 -0.22,115.55 0.65,255.31 -22.26,356.99 -14.24,7.48 -42.15,23.88 -56.78,29.01 -69.17,24.2 -24.18,12.12 -53.2,6.94 -7.84,-118.57 20.84,-273.93 17.96,-413.34 -2.95,-140.61 -15.77,-89.77 69.01,-184.63 124.31,-139.1 333.44,-486 398.89,-657.53 16.82,-44.08 48.87,-136.55 76.49,-169.04 33.68,20.16 83.76,46.9 121.24,76.97l117.3 100.85z"/>
   <path class="fil8" d="M7730.27 17033.92c-70.24,19.38 -34.51,7.51 -53,0.31 100.41,-62.79 122.47,-58.1 113.99,-169.89 -13.74,-180.75 -9.84,-475.1 13.53,-645.54 9.35,-68.08 25.45,-140.03 7.8,-212.97 -86.66,-358.06 -77.53,-347 -124.64,-715.77 -43.8,23.39 -46.96,34.69 -84.96,29.98l138.59 -110.28c29.32,162 52.7,309.85 97.33,475.66 92.95,345.11 131.97,254.82 85.79,475.22 -25.2,120.2 -47.78,274.61 -57.79,407.14 -7.8,103.09 -2.16,334.5 -21.22,412.82l-115.42 53.32z"/>
   <path class="fil8" d="M12702.64 18144.17l-18 21.2c-40.92,-43.9 -64.8,-36.61 -149.27,-78.41 -71.03,-35.12 -66.24,-49.33 -155.35,3.06 -121.8,71.57 -265.08,136.56 -401.36,192.44 -102.86,42.16 -359.31,106.12 -421.54,161.42 -52.72,46.85 -223.99,214.83 -291.14,213.92 370.53,-353.2 78.36,-272.28 493.33,-403.28 270.81,-85.5 449.07,-191.97 687.12,-312.87 54.79,38.05 214.29,156.11 256.21,202.52z"/>
   <path class="fil8" d="M9093.76 18632.39c30.59,63.62 12.47,15.4 -1.12,41.21 -86.08,-112.16 -174.02,-190.2 -263.76,-322 -70.24,-103.19 -160.45,-333.58 -229.42,-384.77 -189.38,-140.55 -342.15,-296.58 -495.07,-477.85 -5.25,-6.24 -25.92,-31.03 -28.66,-35.79 -33.64,-59.06 -17.1,-17.68 -10.37,-46.31 133,163.67 433.05,366.8 590.69,464.44 101.48,62.85 72.6,40.05 124.05,176.75 78.83,209.4 190.95,403.53 313.66,584.32z"/>
   <path class="fil11" d="M12934.73 17811.93l20.39 0.3c-11.01,45.74 -38.25,71.8 -66.34,113.63 -90.67,-86.41 -240,-170.67 -327.35,-261.56 20.65,-119.59 98.46,-327.45 90.17,-461.14l14.97 -42.47c29.02,5.18 -15.97,17.26 53.2,-6.94 14.63,-5.13 42.54,-21.53 56.78,-29.01 6.2,107.52 -40.25,320.79 -64.56,414.07 -27.49,105.51 -17.22,86.47 68.42,151.27 42.27,31.99 125.89,92.03 154.32,121.85z"/>
   <path class="fil11" d="M8371.36 15785.18l-5.62 10.17 73.48 112.4c-63.78,6.08 -184.58,28.66 -230.31,-12.52 -73.42,-205.79 -231.22,-767.97 -199.4,-946.24 37.78,140.87 89.65,289.01 145.58,423.59 59.34,142.8 93.65,284.51 150.63,414.58l65.64 -1.98z"/>
   <path class="fil5" d="M9418.24 16870.15c26.92,0.39 25.84,27.92 38.27,60.99l92.59 192.95 -410.44 413.18c33.93,-72.86 232.01,-375.07 283.2,-425.6l-164.57 -327.67 -5.61 -3.53 -260.33 -603.41 -355.4 1.28 -9.93 -12.05 -344.34 -27.02c-18.31,35.29 -16.77,39.61 -29.13,74.66l-172.51 483.95c-15.83,-166.21 85.6,-493.32 103.02,-654.74 100.29,-33.29 195.12,3.5 286.52,-29.85l63.57 21.18c57.84,-19.16 498.8,-20.13 563.6,-5.83 21.81,38.7 312.1,797.89 321.49,841.51zm-1332.51 -2357.43l13.25 -31.03c76.57,-155.16 374.08,-489.69 501.44,-588.4 -30.27,177.13 -12.27,94.21 -236.24,313.46 -116.39,113.96 -217.36,247.7 -278.45,305.97zm3126.73 409.12c6.62,-78.27 185.61,-536.28 223.25,-627.85 -120.24,-182 -463.9,-396.06 -642.47,-495.14 -87.98,-48.81 -85.34,-40.56 -214.06,-12.96 -291.06,62.48 -500.42,138.45 -782.7,220.84 118.06,-126.29 687.36,-337.31 902.69,-373.23 190.72,-31.8 757.34,435.57 877.3,592.04 56.7,74.03 16.65,76.54 -81.02,241.93l-282.99 454.37zm1904.27 -32.31c61.77,173.16 133.97,372.88 132.02,547.39 -105.98,-281.82 -160.24,-542.12 -366.49,-808.72 -29.96,-38.73 -58.84,-59.04 -55.63,-101.68 1.37,-17.61 27.52,-103.25 35.45,-122.1 94.53,145.67 191.96,309.33 254.65,485.11zm-567.38 2344.4l1.83 -0.65c-35.77,20.56 -41.52,58.14 -57.5,-95.6 -4.61,-44.41 -10.71,-86.75 -16.2,-133.4 -11.05,-94.2 -16.37,-189.31 -32.51,-278.16 -85.36,-21.2 -707.56,-201.23 -732.69,-191.16 -99.83,94.96 -200.54,219.55 -310.15,325.6 -97.44,94.3 -226.81,240.91 -334.19,316.09l449.56 -582.22c45.36,-63.57 97.25,-159.8 140.84,-210.7 62.32,-7.01 814.78,203.47 907.52,238.99 40.39,179.58 -23.52,437.94 -16.51,611.21z"/>
   <g>
    <polygon class="fil3" points="4258.44,18359.41 16754.59,18353.83 16754.59,20900.68 4258.44,20906.27 "/>
   </g>
   <polygon class="fil0" points="4424.61,18525.43 16582.17,18525.43 15590.99,20740.11 5508.72,20740.11 "/>
   <g>
    <polygon class="fil3" points="6592.5,18800.93 14211.74,18800.93 14211.74,20420.67 6592.5,20420.67 "/>
   </g>
   <path class="fil5" d="M6867.44 20315.04l414.72 0c15.23,0 30.45,-8.04 39.97,-18.1l112.23 -118.73c9.52,-10.06 17.12,-26.15 17.12,-42.25l0 -507.06c0,-16.08 -7.6,-32.18 -17.12,-42.25l-112.23 -118.7c-9.52,-10.07 -24.74,-18.13 -39.97,-18.13l-296.77 0c-5.71,0 -15.21,-4.02 -19.02,-8.04l-15.22 -16.1c-3.79,-4.02 -7.61,-14.09 -7.61,-20.13l0 -195.16c0,-6.04 3.82,-16.11 7.61,-20.13l15.22 -16.1c3.81,-4.02 13.31,-8.04 19.02,-8.04l178.82 0c5.72,0 15.22,4.02 19.03,8.04l15.23 16.1c3.81,4.02 7.6,14.09 7.6,20.13l0 76.46c0,18.1 13.31,32.18 30.44,32.18l184.54 0c17.12,0 30.43,-14.08 30.43,-32.18l0 -201.21c0,-16.1 -7.6,-32.21 -17.12,-42.25l-112.23 -118.73c-9.52,-10.06 -24.74,-18.1 -39.97,-18.1l-414.72 0c-15.21,0 -30.43,8.04 -39.95,18.1l-112.23 118.73c-9.52,10.04 -17.14,26.15 -17.14,42.25l0 444.68c0,16.09 7.62,32.19 17.14,42.25l112.23 118.71c9.52,10.06 24.74,18.12 39.95,18.12l296.77 0c5.72,0 15.22,4.02 19.03,8.04l15.23 16.11c3.81,4.02 7.6,14.08 7.6,20.1l0 257.56c0,6.04 -3.79,16.1 -7.6,20.13l-15.23 16.08c-3.81,4.04 -13.31,8.06 -19.03,8.06l-178.82 0c-5.71,0 -15.21,-4.02 -19.02,-8.06l-15.22 -16.08c-3.79,-4.03 -7.61,-14.09 -7.61,-20.13l0 -136.83c0,-18.1 -13.31,-32.19 -30.44,-32.19l-184.53 0c-17.14,0 -30.45,14.09 -30.45,32.19l0 261.58c0,16.1 7.62,32.19 17.14,42.25l112.23 118.73c9.52,10.06 24.74,18.1 39.95,18.1zm1075.64 0l412.81 0c17.12,0 30.43,-14.08 30.43,-32.19l0 -195.18c0,-18.1 -13.31,-32.19 -30.43,-32.19l-57.05 0c-15.23,0 -26.64,-12.08 -26.64,-28.17l0 -211.28c0,-16.09 11.41,-28.17 26.64,-28.17l334.81 0c15.22,0 30.45,-8.04 39.96,-18.1l112.23 -118.71c9.52,-10.06 17.12,-26.17 17.12,-42.27l0 -523.14c0,-16.1 -7.6,-32.21 -17.12,-42.25l-112.23 -118.73c-9.51,-10.06 -24.74,-18.1 -39.96,-18.1l-690.57 0c-17.14,0 -30.45,14.08 -30.45,32.19l0 195.18c0,18.1 13.31,32.19 30.45,32.19l57.06 0c15.22,0 26.64,12.08 26.64,28.16l0 833.03c0,16.09 -11.42,28.17 -26.64,28.17l-57.06 0c-17.14,0 -30.45,14.09 -30.45,32.19l0 195.18c0,18.11 13.31,32.19 30.45,32.19zm329.12 -814.91l0 -305.85c0,-16.08 11.41,-28.16 26.64,-28.16l216.85 0c5.73,0 15.23,4.02 19.04,8.04l15.22 16.1c3.81,4.02 7.61,14.09 7.61,20.13l0 273.64c0,6.04 -3.8,16.1 -7.61,20.13l-15.22 16.1c-3.81,4.02 -13.31,8.04 -19.04,8.04l-216.85 0c-15.23,0 -26.64,-12.06 -26.64,-28.17zm1161.22 814.91l433.76 0c15.22,0 30.45,-8.04 39.93,-18.1l112.26 -118.73c9.52,-10.06 17.12,-26.15 17.12,-42.25l0 -1050.32c0,-16.1 -7.6,-32.21 -17.12,-42.25l-112.26 -118.73c-9.48,-10.06 -24.71,-18.1 -39.93,-18.1l-433.76 0c-15.21,0 -30.44,8.04 -39.95,18.1l-112.23 118.73c-9.52,10.04 -17.14,26.15 -17.14,42.25l0 1050.32c0,16.1 7.62,32.19 17.14,42.25l112.23 118.73c9.51,10.06 24.74,18.1 39.95,18.1zm76.1 -303.83l0 -800.82c0,-6.04 3.8,-16.11 7.61,-20.13l15.22 -16.1c3.81,-4.02 13.31,-8.04 19.02,-8.04l197.85 0c5.71,0 15.23,4.02 19.02,8.04l15.23 16.1c3.81,4.02 7.6,14.09 7.6,20.13l0 800.82c0,6.04 -3.79,16.1 -7.6,20.13l-15.23 16.08c-3.79,4.04 -13.31,8.06 -19.02,8.06l-197.85 0c-5.71,0 -15.21,-4.02 -19.02,-8.06l-15.22 -16.08c-3.81,-4.03 -7.61,-14.09 -7.61,-20.13zm1018.56 303.83l412.83 0c17.1,0 30.43,-14.08 30.43,-32.19l0 -195.18c0,-18.1 -13.33,-32.19 -30.43,-32.19l-57.08 0c-15.22,0 -26.63,-12.08 -26.63,-28.17l0 -247.49c0,-16.1 11.41,-28.17 26.63,-28.17l49.47 0c9.5,0 19.02,6.04 22.83,18.11l175.01 515.1c5.7,18.12 22.83,30.18 39.97,30.18l247.3 0c17.12,0 30.45,-14.08 30.45,-32.19l0 -195.18c0,-18.1 -13.33,-32.19 -30.45,-32.19l-58.99 0c-17.12,0 -32.33,-12.08 -38.03,-28.17l-87.51 -261.57c-1.91,-8.05 0,-16.11 5.71,-24.15l106.52 -126.77c9.52,-10.06 17.14,-26.15 17.14,-42.25l0 -486.93c0,-16.1 -7.62,-32.21 -17.14,-42.25l-112.23 -118.73c-9.51,-10.06 -24.74,-18.1 -39.95,-18.1l-665.85 0c-17.12,0 -30.45,14.08 -30.45,32.19l0 195.18c0,18.1 13.33,32.19 30.45,32.19l57.07 0c15.22,0 26.62,12.08 26.62,28.16l0 833.03c0,16.09 -11.4,28.17 -26.62,28.17l-57.07 0c-17.12,0 -30.45,14.09 -30.45,32.19l0 195.18c0,18.11 13.33,32.19 30.45,32.19zm329.12 -851.13l0 -269.63c0,-16.08 11.41,-28.16 26.63,-28.16l192.15 0c5.69,0 15.21,4.02 19.02,8.04l15.22 16.1c3.8,4.02 7.61,14.09 7.61,20.13l0 237.43c0,6.03 -3.81,16.09 -7.61,20.13l-15.22 16.08c-3.81,4.02 -13.33,8.06 -19.02,8.06l-192.15 0c-15.22,0 -26.63,-12.08 -26.63,-28.18zm1201.18 851.13l412.81 0c17.12,0 30.45,-14.08 30.45,-32.19l0 -195.18c0,-18.1 -13.33,-32.19 -30.45,-32.19l-57.05 0c-15.23,0 -26.66,-12.08 -26.66,-28.17l0 -833.03c0,-16.08 11.43,-28.16 26.66,-28.16l28.51 0c15.23,0 26.64,12.08 26.64,28.16l0 82.5c0,18.11 13.33,32.19 30.45,32.19l184.53 0c17.14,0 30.45,-14.08 30.45,-32.19l0 -338.03c0,-18.11 -13.31,-32.19 -30.45,-32.19l-838.97 0c-17.12,0 -30.43,14.08 -30.43,32.19l0 338.03c0,18.11 13.31,32.19 30.43,32.19l184.54 0c17.13,0 30.44,-14.08 30.44,-32.19l0 -82.5c0,-16.08 11.41,-28.16 26.62,-28.16l28.55 0c15.23,0 26.62,12.08 26.62,28.16l0 833.03c0,16.09 -11.39,28.17 -26.62,28.17l-57.07 0c-17.14,0 -30.45,14.09 -30.45,32.19l0 195.18c0,18.11 13.31,32.19 30.45,32.19z"/>
   <path class="fil5" d="M13522.07 20315.04l414.73 0c15.22,0 30.45,-8.04 39.96,-18.1l112.23 -118.73c9.52,-10.06 17.12,-26.15 17.12,-42.25l0 -507.06c0,-16.08 -7.6,-32.18 -17.12,-42.25l-112.23 -118.7c-9.51,-10.07 -24.74,-18.13 -39.96,-18.13l-296.77 0c-5.71,0 -15.21,-4.02 -19.02,-8.04l-15.23 -16.1c-3.79,-4.02 -7.6,-14.09 -7.6,-20.13l0 -195.16c0,-6.04 3.81,-16.11 7.6,-20.13l15.23 -16.1c3.81,-4.02 13.31,-8.04 19.02,-8.04l178.81 0c5.73,0 15.23,4.02 19.04,8.04l15.22 16.1c3.82,4.02 7.61,14.09 7.61,20.13l0 76.46c0,18.1 13.31,32.18 30.43,32.18l184.54 0c17.12,0 30.43,-14.08 30.43,-32.18l0 -201.21c0,-16.1 -7.6,-32.21 -17.12,-42.25l-112.23 -118.73c-9.51,-10.06 -24.74,-18.1 -39.96,-18.1l-414.73 0c-15.2,0 -30.43,8.04 -39.95,18.1l-112.22 118.73c-9.52,10.04 -17.14,26.15 -17.14,42.25l0 444.68c0,16.09 7.62,32.19 17.14,42.25l112.22 118.71c9.52,10.06 24.75,18.12 39.95,18.12l296.77 0c5.73,0 15.23,4.02 19.04,8.04l15.22 16.11c3.82,4.02 7.61,14.08 7.61,20.1l0 257.56c0,6.04 -3.79,16.1 -7.61,20.13l-15.22 16.08c-3.81,4.04 -13.31,8.06 -19.04,8.06l-178.81 0c-5.71,0 -15.21,-4.02 -19.02,-8.06l-15.23 -16.08c-3.79,-4.03 -7.6,-14.09 -7.6,-20.13l0 -136.83c0,-18.1 -13.31,-32.19 -30.45,-32.19l-184.52 0c-17.14,0 -30.45,14.09 -30.45,32.19l0 261.58c0,16.1 7.62,32.19 17.14,42.25l112.22 118.73c9.52,10.06 24.75,18.1 39.95,18.1z"/>
   <polygon class="fil5" points="13086.12,19051.69 13254.56,19051.69 13088.96,19502.72 12963.13,19506.58 "/>
   <path class="fil5" d="M8695.14 21516.35l285.89 0c6.53,0 13.04,-3.27 17.1,-7.32l48.06 -48.07c4.08,-4.07 7.32,-10.59 7.32,-17.1l0 -425.16c0,-6.51 -3.24,-13.04 -7.32,-17.1l-48.06 -48.06c-4.06,-4.08 -10.57,-7.32 -17.1,-7.32l-285.89 0c-7.32,0 -13.03,5.69 -13.03,13.03l0 79c0,7.32 5.71,13.03 13.03,13.03l24.45 0c6.51,0 11.39,4.88 11.39,11.4l0 337.19c0,6.52 -4.88,11.41 -11.39,11.41l-24.45 0c-7.32,0 -13.03,5.69 -13.03,13.03l0 79.01c0,7.32 5.71,13.03 13.03,13.03zm140.91 -116.48l0 -337.19c0,-6.52 4.9,-11.4 11.41,-11.4l83.08 0c2.44,0 6.51,1.63 8.15,3.25l6.51 6.51c1.62,1.64 3.25,5.71 3.25,8.15l0 324.17c0,2.44 -1.63,6.51 -3.25,8.14l-6.51 6.52c-1.64,1.63 -5.71,3.26 -8.15,3.26l-83.08 0c-6.51,0 -11.41,-4.89 -11.41,-11.41zm291.59 116.48l320.11 0c7.32,0 13.03,-5.71 13.03,-13.03l0 -136.83c0,-7.34 -5.71,-13.03 -13.03,-13.03l-79.03 0c-7.32,0 -13.03,5.69 -13.03,13.03l0 33.38c0,6.52 -4.88,11.41 -11.39,11.41l-64.34 0c-6.52,0 -11.42,-4.89 -11.42,-11.41l0 -109.14c0,-6.51 4.9,-11.39 11.42,-11.39l121.36 0c7.32,0 13.03,-5.71 13.03,-13.03l0 -79.01c0,-7.34 -5.71,-13.03 -13.03,-13.03l-121.36 0c-6.52,0 -11.42,-4.9 -11.42,-11.41l0 -100.18c0,-6.52 4.9,-11.4 11.42,-11.4l64.34 0c6.51,0 11.39,4.88 11.39,11.4l0 33.4c0,7.32 5.71,13.03 13.03,13.03l79.03 0c7.32,0 13.03,-5.71 13.03,-13.03l0 -136.83c0,-7.34 -5.71,-13.03 -13.03,-13.03l-320.11 0c-7.33,0 -13.03,5.69 -13.03,13.03l0 79c0,7.32 5.7,13.03 13.03,13.03l24.44 0c6.52,0 11.4,4.88 11.4,11.4l0 337.19c0,6.52 -4.88,11.41 -11.4,11.41l-24.44 0c-7.33,0 -13.03,5.69 -13.03,13.03l0 79.01c0,7.32 5.7,13.03 13.03,13.03zm466.7 0l177.57 0c6.52,0 13.03,-3.27 17.1,-7.32l48.05 -48.07c4.07,-4.07 7.34,-10.59 7.34,-17.1l0 -205.25c0,-6.51 -3.27,-13.03 -7.34,-17.1l-48.05 -48.06c-4.07,-4.08 -10.58,-7.33 -17.1,-7.33l-127.07 0c-2.44,0 -6.51,-1.63 -8.14,-3.26l-6.52 -6.52c-1.63,-1.63 -3.25,-5.7 -3.25,-8.14l0 -79.01c0,-2.44 1.62,-6.51 3.25,-8.15l6.52 -6.51c1.63,-1.62 5.7,-3.25 8.14,-3.25l76.57 0c2.44,0 6.51,1.63 8.14,3.25l6.52 6.51c1.63,1.64 3.25,5.71 3.25,8.15l0 30.96c0,7.32 5.71,13.03 13.03,13.03l79.02 0c7.32,0 13.03,-5.71 13.03,-13.03l0 -81.45c0,-6.51 -3.27,-13.04 -7.34,-17.1l-48.05 -48.06c-4.07,-4.08 -10.58,-7.32 -17.1,-7.32l-177.57 0c-6.52,0 -13.03,3.24 -17.1,7.32l-48.05 48.06c-4.07,4.06 -7.34,10.59 -7.34,17.1l0 180c0,6.51 3.27,13.03 7.34,17.1l48.05 48.07c4.07,4.05 10.58,7.32 17.1,7.32l127.07 0c2.44,0 6.51,1.63 8.14,3.26l6.52 6.52c1.63,1.61 3.25,5.69 3.25,8.13l0 104.26c0,2.44 -1.62,6.51 -3.25,8.14l-6.52 6.52c-1.63,1.63 -5.7,3.26 -8.14,3.26l-76.57 0c-2.44,0 -6.51,-1.63 -8.14,-3.26l-6.52 -6.52c-1.63,-1.63 -3.25,-5.7 -3.25,-8.14l0 -55.39c0,-7.32 -5.71,-13.03 -13.03,-13.03l-79.02 0c-7.32,0 -13.03,5.71 -13.03,13.03l0 105.89c0,6.51 3.27,13.03 7.34,17.1l48.05 48.07c4.07,4.05 10.58,7.32 17.1,7.32zm324.16 0l285.89 0c6.53,0 13.05,-3.27 17.1,-7.32l48.06 -48.07c4.08,-4.07 7.33,-10.59 7.33,-17.1l0 -425.16c0,-6.51 -3.25,-13.04 -7.33,-17.1l-48.06 -48.06c-4.05,-4.08 -10.57,-7.32 -17.1,-7.32l-285.89 0c-7.32,0 -13.03,5.69 -13.03,13.03l0 79c0,7.32 5.71,13.03 13.03,13.03l24.45 0c6.51,0 11.4,4.88 11.4,11.4l0 337.19c0,6.52 -4.89,11.41 -11.4,11.41l-24.45 0c-7.32,0 -13.03,5.69 -13.03,13.03l0 79.01c0,7.32 5.71,13.03 13.03,13.03zm140.91 -116.48l0 -337.19c0,-6.52 4.9,-11.4 11.41,-11.4l83.08 0c2.44,0 6.52,1.63 8.15,3.25l6.51 6.51c1.62,1.64 3.25,5.71 3.25,8.15l0 324.17c0,2.44 -1.63,6.51 -3.25,8.14l-6.51 6.52c-1.63,1.63 -5.71,3.26 -8.15,3.26l-83.08 0c-6.51,0 -11.41,-4.89 -11.41,-11.41zm291.59 116.48l320.11 0c7.32,0 13.03,-5.71 13.03,-13.03l0 -136.83c0,-7.34 -5.71,-13.03 -13.03,-13.03l-79.02 0c-7.33,0 -13.03,5.69 -13.03,13.03l0 33.38c0,6.52 -4.89,11.41 -11.4,11.41l-64.34 0c-6.52,0 -11.42,-4.89 -11.42,-11.41l0 -109.14c0,-6.51 4.9,-11.39 11.42,-11.39l121.36 0c7.32,0 13.03,-5.71 13.03,-13.03l0 -79.01c0,-7.34 -5.71,-13.03 -13.03,-13.03l-121.36 0c-6.52,0 -11.42,-4.9 -11.42,-11.41l0 -100.18c0,-6.52 4.9,-11.4 11.42,-11.4l64.34 0c6.51,0 11.4,4.88 11.4,11.4l0 33.4c0,7.32 5.7,13.03 13.03,13.03l79.02 0c7.32,0 13.03,-5.71 13.03,-13.03l0 -136.83c0,-7.34 -5.71,-13.03 -13.03,-13.03l-320.11 0c-7.32,0 -13.03,5.69 -13.03,13.03l0 79c0,7.32 5.71,13.03 13.03,13.03l24.44 0c6.52,0 11.4,4.88 11.4,11.4l0 337.19c0,6.52 -4.88,11.41 -11.4,11.41l-24.44 0c-7.32,0 -13.03,5.69 -13.03,13.03l0 79.01c0,7.32 5.71,13.03 13.03,13.03zm552.24 0l298.1 0c7.33,0 13.03,-5.71 13.03,-13.03l0 -136.83c0,-7.34 -5.7,-13.03 -13.03,-13.03l-79.02 0c-7.32,0 -13.03,5.69 -13.03,13.03l0 33.38c0,6.52 -4.88,11.41 -11.39,11.41l-87.96 0c-7.34,0 -13.03,-5.7 -13.03,-13.02l0 -88.79c0,-2.44 1.61,-6.52 3.24,-8.15l6.52 -6.51c1.63,-1.64 5.71,-3.25 8.15,-3.25l127.06 0c6.52,0 13.03,-3.27 17.11,-7.34l48.04 -48.05c4.08,-4.07 7.34,-10.59 7.34,-17.1l0 -200.37c0,-6.51 -3.26,-13.04 -7.34,-17.1l-48.04 -48.06c-4.08,-4.08 -10.59,-7.32 -17.11,-7.32l-177.57 0c-6.51,0 -13.03,3.24 -17.1,7.32l-48.05 48.06c-4.07,4.06 -7.34,10.59 -7.34,17.1l0 89.6c0,7.32 5.71,13.03 13.03,13.03l79.03 0c7.32,0 13.03,-5.71 13.03,-13.03l0 -39.11c0,-2.44 1.61,-6.51 3.24,-8.15l6.52 -6.51c1.63,-1.62 5.71,-3.25 8.15,-3.25l76.56 0c2.44,0 6.52,1.63 8.15,3.25l6.51 6.51c1.64,1.64 3.25,5.71 3.25,8.15l0 99.38c0,2.44 -1.61,6.51 -3.25,8.14l-6.51 6.52c-1.63,1.63 -5.71,3.25 -8.15,3.25l-127.07 0c-6.51,0 -13.03,3.26 -17.1,7.34l-48.05 48.04c-4.07,4.08 -7.34,10.59 -7.34,17.11l0 245.98c0,6.52 4.9,11.4 11.42,11.4zm460.99 0l185.71 0c6.53,0 13.04,-3.27 17.1,-7.32l48.06 -48.07c4.08,-4.07 7.32,-10.59 7.32,-17.1l0 -425.16c0,-6.51 -3.24,-13.04 -7.32,-17.1l-48.06 -48.06c-4.06,-4.08 -10.57,-7.32 -17.1,-7.32l-185.71 0c-6.51,0 -13.03,3.24 -17.1,7.32l-48.04 48.06c-4.08,4.06 -7.34,10.59 -7.34,17.1l0 425.16c0,6.51 3.26,13.03 7.34,17.1l48.04 48.07c4.07,4.05 10.59,7.32 17.1,7.32zm32.6 -122.99l0 -324.17c0,-2.44 1.61,-6.51 3.25,-8.15l6.51 -6.51c1.63,-1.62 5.71,-3.25 8.15,-3.25l84.71 0c2.44,0 6.51,1.63 8.15,3.25l6.51 6.51c1.62,1.64 3.25,5.71 3.25,8.15l0 324.17c0,2.44 -1.63,6.51 -3.25,8.14l-6.51 6.52c-1.64,1.63 -5.71,3.26 -8.15,3.26l-84.71 0c-2.44,0 -6.52,-1.63 -8.15,-3.26l-6.51 -6.52c-1.64,-1.63 -3.25,-5.7 -3.25,-8.14zm299.72 122.99l176.74 0c7.34,0 13.03,-5.71 13.03,-13.03l0 -79.01c0,-7.34 -5.69,-13.03 -13.03,-13.03l-24.42 0c-6.52,0 -11.42,-4.89 -11.42,-11.41l0 -442.26c0,-6.51 -4.88,-11.39 -11.39,-11.39l-127.05 0c-6.54,0 -11.42,4.88 -11.42,11.39l0 82.27c0,6.52 4.88,11.4 11.42,11.4l21.98 0c6.52,0 11.4,4.88 11.4,11.4l0 337.19c0,6.52 -4.88,11.41 -11.4,11.41l-24.44 0c-7.33,0 -13.03,5.69 -13.03,13.03l0 79.01c0,7.32 5.7,13.03 13.03,13.03zm500.93 -570.13l-177.58 0c-6.51,0 -13.03,3.24 -17.1,7.32l-48.04 48.06c-4.08,4.06 -7.34,10.59 -7.34,17.1l0 224.8c0,6.51 3.26,13.03 7.34,17.1l48.04 48.06c4.07,4.06 10.59,7.32 17.1,7.32l105.09 0c6.51,0 13.03,-3.26 17.1,-7.32l13.03 -13.05c4.07,-4.05 9.76,-1.61 9.76,4.08l0 93.67c0,2.44 -1.61,6.51 -3.25,8.14l-6.51 6.52c-1.63,1.63 -5.71,3.26 -8.15,3.26l-73.3 0c-2.45,0 -6.51,-1.63 -8.14,-3.26l-6.52 -6.52c-1.63,-1.63 -3.26,-5.7 -3.26,-8.14l0 -26.87c0,-7.34 -5.69,-13.03 -13.03,-13.03l-79.01 0c-7.32,0 -13.03,5.69 -13.03,13.03l0 77.37c0,6.51 3.25,13.03 7.32,17.1l48.07 48.07c4.07,4.05 10.59,7.32 17.1,7.32l174.31 0c6.51,0 13.03,-3.27 17.1,-7.32l48.04 -48.07c4.08,-4.07 7.34,-10.59 7.34,-17.1l0 -425.16c0,-6.51 -3.26,-13.04 -7.34,-17.1l-48.04 -48.06c-4.07,-4.08 -10.59,-7.32 -17.1,-7.32zm-144.98 246.77l0 -123.8c0,-2.44 1.61,-6.51 3.25,-8.15l6.51 -6.51c1.63,-1.62 5.71,-3.25 8.15,-3.25l76.56 0c2.44,0 6.52,1.63 8.15,3.25l6.51 6.51c1.64,1.64 3.25,5.71 3.25,8.15l0 123.8c0,2.44 -1.61,6.52 -3.25,8.15l-6.51 6.51c-1.63,1.64 -5.71,3.27 -8.15,3.27l-76.56 0c-2.44,0 -6.52,-1.63 -8.15,-3.27l-6.51 -6.51c-1.64,-1.63 -3.25,-5.71 -3.25,-8.15z"/>
   <polygon class="fil5 str1" points="5961.53,16232.21 6116.38,16596.65 6493.74,16638.93 6212.07,16906.45 6290.46,17296.99 5961.53,17097.87 5632.61,17296.99 5711,16906.41 5429.33,16638.93 5806.7,16596.65 "/>
   <polygon class="fil5 str1" points="14930.8,16232.18 15085.65,16596.61 15463.01,16638.9 15181.34,16906.41 15259.73,17296.95 14930.8,17097.84 14601.88,17296.95 14680.27,16906.38 14398.6,16638.9 14775.97,16596.61 "/>
  </g>
 </g>
</svg>
